HIERARCHY
ROOT hip
{
  OFFSET 0 0 0
  CHANNELS 6 Xposition Yposition Zposition Zrotation Yrotation Xrotation
  JOINT abdomen
  {
    OFFSET 0 20.6881 -0.73152
    CHANNELS 3 Zrotation Xrotation Yrotation
    JOINT chest
    {
      OFFSET 0 11.7043 -0.48768
      CHANNELS 3 Zrotation Xrotation Yrotation
      JOINT neck
      {
        OFFSET 0 22.1894 -2.19456
        CHANNELS 3 Zrotation Xrotation Yrotation
        JOINT head
        {
          OFFSET -0.24384 7.07133 1.2192
          CHANNELS 3 Zrotation Xrotation Yrotation
          JOINT leftEye
          {
            OFFSET 4.14528 8.04674 8.04672
            CHANNELS 3 Zrotation Xrotation Yrotation
            End Site
            {
              OFFSET 1 0 0
            }
          }
          JOINT rightEye
          {
            OFFSET -3.6576 8.04674 8.04672
            CHANNELS 3 Zrotation Xrotation Yrotation
            End Site
            {
              OFFSET 1 0 0
            }
          }
        }
      }
      JOINT rCollar
      {
        OFFSET -2.68224 19.2634 -4.8768
        CHANNELS 3 Zrotation Xrotation Yrotation
        JOINT rShldr
        {
          OFFSET -8.77824 -1.95073 1.46304
          CHANNELS 3 Zrotation Xrotation Yrotation
          JOINT rForeArm
          {
            OFFSET -28.1742 -1.7115 0.48768
            CHANNELS 3 Zrotation Xrotation Yrotation
            JOINT rHand
            {
              OFFSET -22.5879 0.773209 7.07136
              CHANNELS 3 Zrotation Xrotation Yrotation
              JOINT rThumb1
              {
                OFFSET -1.2192 -0.487915 3.41376
                CHANNELS 3 Zrotation Xrotation Yrotation
                JOINT rThumb2
                {
                  OFFSET -3.37035 -0.52449 3.41376
                  CHANNELS 3 Zrotation Xrotation Yrotation
                  End Site
                  {
                    OFFSET -1.78271 -1.18214 1.43049
                  }
                }
              }
              JOINT rIndex1
              {
                OFFSET -7.75947 0.938293 5.60832
                CHANNELS 3 Zrotation Xrotation Yrotation
                JOINT rIndex2
                {
                  OFFSET -2.54057 -0.884171 1.56538
                  CHANNELS 3 Zrotation Xrotation Yrotation
                  End Site
                  {
                    OFFSET -1.62519 -0.234802 1.16502
                  }
                }
              }
              JOINT rMid1
              {
                OFFSET -8.24714 1.18213 3.41376
                CHANNELS 3 Zrotation Xrotation Yrotation
                JOINT rMid2
                {
                  OFFSET -3.10165 -0.590103 1.0647
                  CHANNELS 3 Zrotation Xrotation Yrotation
                  End Site
                  {
                    OFFSET -2.48547 -0.328903 0.83742
                  }
                }
              }
              JOINT rRing1
              {
                OFFSET -8.82822 0.546677 1.51678
                CHANNELS 3 Zrotation Xrotation Yrotation
                JOINT rRing2
                {
                  OFFSET -2.60934 -0.819778 -0.0198488
                  CHANNELS 3 Zrotation Xrotation Yrotation
                  End Site
                  {
                    OFFSET -2.33842 -0.294052 0.168128
                  }
                }
              }
              JOINT rPinky1
              {
                OFFSET -8.27202 -0.0477905 -0.4584
                CHANNELS 3 Zrotation Xrotation Yrotation
                JOINT rPinky2
                {
                  OFFSET -1.82734 -0.647385 -0.700984
                  CHANNELS 3 Zrotation Xrotation Yrotation
                  End Site
                  {
                    OFFSET -1.69225 -0.51767 -0.607171
                  }
                }
              }
            }
          }
        }
      }
      JOINT lCollar
      {
        OFFSET 2.68224 19.2634 -4.8768
        CHANNELS 3 Zrotation Xrotation Yrotation
        JOINT lShldr
        {
          OFFSET 8.77824 -1.95073 1.46304
          CHANNELS 3 Zrotation Xrotation Yrotation
          JOINT lForeArm
          {
            OFFSET 28.1742 -1.7115 0.48768
            CHANNELS 3 Zrotation Xrotation Yrotation
            JOINT lHand
            {
              OFFSET 22.5879 0.773209 7.07136
              CHANNELS 3 Zrotation Xrotation Yrotation
              JOINT lThumb1
              {
                OFFSET 1.2192 -0.487915 3.41376
                CHANNELS 3 Zrotation Xrotation Yrotation
                JOINT lThumb2
                {
                  OFFSET 3.37035 -0.52449 3.41376
                  CHANNELS 3 Zrotation Xrotation Yrotation
                  End Site
                  {
                    OFFSET 1.78271 -1.18214 1.43049
                  }
                }
              }
              JOINT lIndex1
              {
                OFFSET 7.75947 0.938293 5.60832
                CHANNELS 3 Zrotation Xrotation Yrotation
                JOINT lIndex2
                {
                  OFFSET 2.54057 -0.884171 1.56538
                  CHANNELS 3 Zrotation Xrotation Yrotation
                  End Site
                  {
                    OFFSET 1.62519 -0.234802 1.16502
                  }
                }
              }
              JOINT lMid1
              {
                OFFSET 8.24714 1.18213 3.41376
                CHANNELS 3 Zrotation Xrotation Yrotation
                JOINT lMid2
                {
                  OFFSET 3.10165 -0.590103 1.0647
                  CHANNELS 3 Zrotation Xrotation Yrotation
                  End Site
                  {
                    OFFSET 2.48547 -0.328903 0.83742
                  }
                }
              }
              JOINT lRing1
              {
                OFFSET 8.82822 0.546677 1.51678
                CHANNELS 3 Zrotation Xrotation Yrotation
                JOINT lRing2
                {
                  OFFSET 2.60934 -0.819778 -0.0198488
                  CHANNELS 3 Zrotation Xrotation Yrotation
                  End Site
                  {
                    OFFSET 2.33842 -0.294052 0.168128
                  }
                }
              }
              JOINT lPinky1
              {
                OFFSET 8.27202 -0.0477905 -0.4584
                CHANNELS 3 Zrotation Xrotation Yrotation
                JOINT lPinky2
                {
                  OFFSET 1.82734 -0.647385 -0.700984
                  CHANNELS 3 Zrotation Xrotation Yrotation
                  End Site
                  {
                    OFFSET 1.69225 -0.51767 -0.607171
                  }
                }
              }
            }
          }
        }
      }
    }
  }
  JOINT rButtock
  {
    OFFSET -8.77824 4.35084 1.2192
    CHANNELS 3 Zrotation Xrotation Yrotation
    JOINT rThigh
    {
      OFFSET 0 -1.70687 -2.19456
      CHANNELS 3 Zrotation Xrotation Yrotation
      JOINT rShin
      {
        OFFSET 0 -36.8199 0.73152
        CHANNELS 3 Zrotation Xrotation Yrotation
        JOINT rFoot
        {
          OFFSET 0.73152 -45.1104 -5.12064
          CHANNELS 3 Zrotation Xrotation Yrotation
          End Site
          {
            OFFSET -1.1221 -3.69964 12.103
          }
        }
      }
    }
  }
  JOINT lButtock
  {
    OFFSET 8.77824 4.35084 1.2192
    CHANNELS 3 Zrotation Xrotation Yrotation
    JOINT lThigh
    {
      OFFSET 0 -1.70687 -2.19456
      CHANNELS 3 Zrotation Xrotation Yrotation
      JOINT lShin
      {
        OFFSET 0 -36.8199 0.73152
        CHANNELS 3 Zrotation Xrotation Yrotation
        JOINT lFoot
        {
          OFFSET -0.73152 -45.1104 -5.12064
          CHANNELS 3 Zrotation Xrotation Yrotation
          End Site
          {
            OFFSET 1.1221 -3.69964 12.103
          }
        }
      }
    }
  }
}
MOTION
Frames:	4
Frame Time:	0.03333
-0.4165000021457672 60.62519836425781 2.160399913787842 2.210200075060129 25.182799100875854 -11.370799988508224 -12.07660049200058 20.578000098466873 -6.937030032277107 11.315900534391403 -6.426360234618187 -1.7065199464559555 -7.173979729413986 16.41100063920021 -7.897789925336838 10.87029978632927 -22.941100001335144 -13.323799520730972 0.0 0.0 0.0 0.0 0.0 0.0 0.0 0.0 0.0 76.17279946804047 17.15679958462715 -21.55600056052208 -21.93179950118065 -15.65620020031929 43.601099252700806 -0.24933400098234415 14.096499681472778 2.0222199708223343 3.235811618651496e-10 -3.171862772433087e-10 -2.6346924641984515e-10 5.576339390245266e-10 -5.448441697808448e-10 -4.5787373892380856e-10 3.235811618651496e-10 -3.171862772433087e-10 -2.6346924641984515e-10 7.7309102565050125 5.474880114197731 0.41731400415301323 3.235811618651496e-10 -3.171862772433087e-10 -2.6346924641984515e-10 2.905540131032467 0.9651830233633518 0.102901995414868 3.235811618651496e-10 -3.171862772433087e-10 -2.6346924641984515e-10 10.27859978377819 0.7318009994924068 0.025912300043273717 3.235811618651496e-10 -3.171862772433087e-10 -2.6346924641984515e-10 2.221670038998127 -0.733487019315362 -0.2089200052432716 0.0 0.0 0.0 -52.54739820957184 43.80320101976395 -34.01779979467392 13.171800076961517 -6.317239925265312 -23.87929916381836 0.6644229870289564 22.362099587917328 -3.316519930958748 2.1678658868040657e-10 9.976020010071807e-10 3.325340003357269e-10 3.8625103115919046e-10 1.7317347555945162e-09 5.729816621169448e-10 2.1678658868040657e-10 9.976020010071807e-10 3.325340003357269e-10 -7.7309102565050125 5.474880114197731 -0.41731400415301323 2.1678658868040657e-10 9.976020010071807e-10 3.325340003357269e-10 -2.905540131032467 0.9651830233633518 -0.102901995414868 2.1678658868040657e-10 9.976020010071807e-10 3.325340003357269e-10 -10.27859978377819 0.7318009994924068 -0.025912300043273717 2.1678658868040657e-10 9.976020010071807e-10 3.325340003357269e-10 -2.221670038998127 -0.733487019315362 0.2089200052432716 0.0 0.0 0.0 -32.61270046234131 -42.188599705696106 -19.444699734449387 -0.44599100947380066 43.629299998283386 0.6235620053485036 -1.5050699561834335 20.713300108909607 7.484930232167244 0.0 0.0 0.0 11.782799363136292 -2.9615500196814537 -2.0637199468910694 0.7860100362449884 63.131298422813416 -3.3167200908064842 18.332000076770782 -26.613899767398834 34.47459876537323
-0.7269000113010406 60.11800003051758 3.880599856376648 3.097200058400631 25.312199592590332 -10.867999792098999 -13.621999472379684 20.29239982366562 -5.152670033276081 10.481299683451653 -6.991260275244713 -1.279570022597909 -7.234000191092491 16.83739945292473 -8.415340259671211 10.741600021719933 -23.76370131969452 -14.347900450229645 0.0 0.0 0.0 0.0 0.0 0.0 0.0 0.0 0.0 77.17899799346924 18.211500495672226 -22.82500058412552 -21.292000114917755 -14.728099554777145 41.91769927740097 -0.3316410002298653 16.20590016245842 2.3404799960553646 -8.108713700494263e-10 1.8749801711237524e-09 -1.084572431864217e-09 -1.4132695014268393e-09 3.240927526348969e-09 -1.864748355728807e-09 -8.108713700494263e-10 1.8749801711237524e-09 -1.084572431864217e-09 7.7309102565050125 5.474880114197731 0.41731400415301323 -8.108713700494263e-10 1.8749801711237524e-09 -1.084572431864217e-09 2.905540131032467 0.9651830233633518 0.102901995414868 -8.108713700494263e-10 1.8749801711237524e-09 -1.084572431864217e-09 10.27859978377819 0.7318009994924068 0.025912300043273717 -8.108713700494263e-10 1.8749801711237524e-09 -1.084572431864217e-09 2.221670038998127 -0.733487019315362 -0.2089200052432716 0.0 0.0 0.0 -51.672601103782654 44.7010999917984 -33.13809961080551 14.73150059580803 -7.565529942512512 -27.03260064125061 0.5608890065923333 20.291300117969513 -2.984740063548088 -6.145484121589107e-10 -2.8342128643998876e-09 -7.776179700158536e-10 -1.0698641972339828e-09 -4.898481620330131e-09 -1.3378098628891166e-09 -6.145484121589107e-10 -2.8342128643998876e-09 -7.776179700158536e-10 -7.7309102565050125 5.474880114197731 -0.41731400415301323 -6.145484121589107e-10 -2.8342128643998876e-09 -7.776179700158536e-10 -2.905540131032467 0.9651830233633518 -0.102901995414868 -6.145484121589107e-10 -2.8342128643998876e-09 -7.776179700158536e-10 -10.27859978377819 0.7318009994924068 -0.025912300043273717 -6.145484121589107e-10 -2.8342128643998876e-09 -7.776179700158536e-10 -2.221670038998127 -0.733487019315362 0.2089200052432716 0.0 0.0 0.0 -33.57849955558777 -43.83890122175217 -20.75099989771843 -0.5657800147309899 47.999401688575745 0.7909299619495869 -0.9746860060840845 16.170300543308258 7.4668702483177185 0.0 0.0 0.0 12.46380016207695 -0.8845429960638285 -1.5561600029468536 0.6683049816638231 61.71039819717407 -3.3286700025200844 18.133799582719803 -26.2321999669075 34.737801253795624
-0.8943000137805939 59.63359832763672 5.435999870300293 4.638499952852726 24.012800753116608 -9.817399978637695 -15.539600551128387 20.00760018825531 -3.586529865860939 9.634840115904808 -7.405599877238274 -0.9481039736419916 -6.990009695291519 16.81309998035431 -8.528959974646568 10.409299805760384 -23.989599645137787 -14.622999876737595 0.0 0.0 0.0 0.0 0.0 0.0 0.0 0.0 0.0 77.53720164299011 20.99940061569214 -22.46880054473877 -20.550599992275238 -13.726699501276016 40.01399874687195 -0.3642029967159033 16.888799965381622 2.445820067077875 -1.886490963443066e-10 1.5501200323342346e-09 -1.000159954855917e-09 -3.382893964953837e-10 2.696083356568124e-09 -1.7291768017457798e-09 -1.886490963443066e-10 1.5501200323342346e-09 -1.000159954855917e-09 7.7309102565050125 5.474880114197731 0.41731400415301323 -1.886490963443066e-10 1.5501200323342346e-09 -1.000159954855917e-09 2.905540131032467 0.9651830233633518 0.102901995414868 -1.886490963443066e-10 1.5501200323342346e-09 -1.000159954855917e-09 10.27859978377819 0.7318009994924068 0.025912300043273717 -1.886490963443066e-10 1.5501200323342346e-09 -1.000159954855917e-09 2.221670038998127 -0.733487019315362 -0.2089200052432716 0.0 0.0 0.0 -52.86870002746582 44.434700310230255 -30.317198932170868 16.25150039792061 -8.933549746870995 -30.17279952764511 0.22568299435079098 14.53040063381195 -2.077819984406233 7.8017592386459e-11 -8.236611392931081e-10 -4.732214620162267e-10 1.2150280781497713e-10 -1.4298962014436256e-09 -8.108713700494263e-10 7.8017592386459e-11 -8.236611392931081e-10 -4.732214620162267e-10 -7.7309102565050125 5.474880114197731 -0.41731400415301323 7.8017592386459e-11 -8.236611392931081e-10 -4.732214620162267e-10 -2.905540131032467 0.9651830233633518 -0.102901995414868 7.8017592386459e-11 -8.236611392931081e-10 -4.732214620162267e-10 -10.27859978377819 0.7318009994924068 -0.025912300043273717 7.8017592386459e-11 -8.236611392931081e-10 -4.732214620162267e-10 -2.221670038998127 -0.733487019315362 0.2089200052432716 0.0 0.0 0.0 -35.452400743961334 -46.146000623703 -22.152899354696274 -0.7127679605036974 52.3488986492157 0.990179032087326 -0.7086139731109142 13.095799684524536 8.065790086984634 0.0 0.0 0.0 12.036500126123428 1.3349200040102005 -0.6720130098983645 0.5608910182490945 60.18880248069763 -3.335530087351799 18.025899678468704 -25.61859905719757 35.31560003757477
-1.0070000141859055 59.05860137939453 6.790999889373779 6.479099839925766 22.54569947719574 -8.790400251746178 -17.834399342536926 19.73030000925064 -2.237030044198036 8.771699890494347 -7.66946017742157 -0.7125900126993656 -6.4443498104810715 16.338900178670883 -8.238069713115692 9.893260225653648 -23.626600205898285 -14.139699339866638 0.0 0.0 0.0 0.0 0.0 0.0 0.0 0.0 0.0 76.96379899978638 25.61300128698349 -20.48580050468445 -19.686699360609055 -12.632399797439575 37.89439916610718 -0.3308819979429245 16.14590048789978 2.3318600468337536 2.1889690060561406e-09 -1.2917666936118621e-09 -7.673861546209082e-12 3.7832137422810774e-09 -2.1819346329721157e-09 -5.1159076974727213e-11 2.1889690060561406e-09 -1.2917666936118621e-09 -7.673861546209082e-12 7.7309102565050125 5.474880114197731 0.41731400415301323 2.1889690060561406e-09 -1.2917666936118621e-09 -7.673861546209082e-12 2.905540131032467 0.9651830233633518 0.102901995414868 2.1889690060561406e-09 -1.2917666936118621e-09 -7.673861546209082e-12 10.27859978377819 0.7318009994924068 0.025912300043273717 2.1889690060561406e-09 -1.2917666936118621e-09 -7.673861546209082e-12 2.221670038998127 -0.733487019315362 -0.2089200052432716 0.0 0.0 0.0 -55.819902420043945 42.788599133491516 -25.76410084962845 17.70600065588951 -10.392299965023994 -33.314299285411835 0.001245240009666304 5.064339861273766 -0.7055369764566422 2.2944846023165155e-09 7.026699222478783e-09 1.2457235243346076e-09 3.9609915347682545e-09 1.2140048966102768e-08 2.1537971406360157e-09 2.2944846023165155e-09 7.026699222478783e-09 1.2457235243346076e-09 -7.7309102565050125 5.474880114197731 -0.41731400415301323 2.2944846023165155e-09 7.026699222478783e-09 1.2457235243346076e-09 -2.905540131032467 0.9651830233633518 -0.102901995414868 2.2944846023165155e-09 7.026699222478783e-09 1.2457235243346076e-09 -10.27859978377819 0.7318009994924068 -0.025912300043273717 2.2944846023165155e-09 7.026699222478783e-09 1.2457235243346076e-09 -2.221670038998127 -0.733487019315362 0.2089200052432716 0.0 0.0 0.0 -38.327200412750244 -49.102299213409424 -23.755898773670197 -0.8996630273759365 56.677597761154175 1.2345199752599 -0.6564269866794348 11.49149939417839 9.239790290594101 0.0 0.0 0.0 10.450399965047836 3.6959800869226456 0.5926989996805787 0.46455700881779194 58.566500544548035 -3.3384600654244423 17.992999702692032 -24.776398837566376 36.20469868183136
